<!DOCTYPE svg PUBLIC "-//W3C//DTD SVG 20010904//EN" "http://www.w3.org/TR/2001/REC-SVG-20010904/DTD/svg10.dtd">
<svg version="1.0" xmlns="http://www.w3.org/2000/svg" width="148px" height="143px" viewBox="0 0 1480 1430" preserveAspectRatio="xMidYMid meet">
<g id="layer101" fill="#0270ba" stroke="none">
 <path d="M0 715 l0 -715 740 0 740 0 0 715 0 715 -740 0 -740 0 0 -715z"/>
 </g>
<g id="layer102" fill="#2b7bbf" stroke="none">
 <path d="M0 715 l0 -715 740 0 740 0 0 715 0 715 -740 0 -740 0 0 -715z m637 699 c-3 -3 -12 -4 -19 -1 -8 3 -5 6 6 6 11 1 17 -2 13 -5z m230 0 c-3 -3 -12 -4 -19 -1 -8 3 -5 6 6 6 11 1 17 -2 13 -5z m78 -92 c105 -35 193 -90 276 -175 73 -73 114 -140 145 -232 23 -69 27 -97 27 -200 0 -102 -4 -131 -26 -197 -52 -156 -168 -286 -332 -374 -86 -45 -152 -58 -295 -58 -177 0 -250 21 -383 113 -62 42 -162 146 -182 187 -9 18 -20 36 -24 39 -5 3 -22 44 -38 93 -24 75 -28 102 -27 197 0 92 5 125 28 197 15 49 32 90 37 94 5 3 18 22 28 42 24 46 115 140 178 183 90 62 136 81 268 113 49 12 261 -3 320 -22z m-675 -66 c0 -3 -5 -8 -12 -12 -7 -4 -8 -3 -4 4 7 12 16 16 16 8z m955 -6 c3 -5 4 -10 1 -10 -3 0 -8 5 -11 10 -3 6 -4 10 -1 10 3 0 8 -4 11 -10z m-1045 -84 c0 -3 -5 -8 -12 -12 -7 -4 -8 -3 -4 4 7 12 16 16 16 8z m1135 -6 c3 -5 4 -10 1 -10 -3 0 -8 5 -11 10 -3 6 -4 10 -1 10 3 0 8 -4 11 -10z m-1224 -123 c-10 -9 -11 -8 -5 6 3 10 9 15 12 12 3 -3 0 -11 -7 -18z m1303 7 c3 -8 2 -12 -4 -9 -6 3 -10 10 -10 16 0 14 7 11 14 -7z m-1341 -89 c-3 -9 -8 -14 -10 -11 -3 3 -2 9 2 15 9 16 15 13 8 -4z m1385 -10 c-3 -3 -9 2 -12 12 -6 14 -5 15 5 6 7 -7 10 -15 7 -18z m-1401 -42 c-4 -3 -7 0 -7 7 0 7 3 10 7 7 3 -4 3 -10 0 -14z m1410 0 c-4 -3 -7 0 -7 7 0 7 3 10 7 7 3 -4 3 -10 0 -14z m-1420 -40 c-4 -3 -7 0 -7 7 0 7 3 10 7 7 3 -4 3 -10 0 -14z m1430 0 c-4 -3 -7 0 -7 7 0 7 3 10 7 7 3 -4 3 -10 0 -14z m-1440 -50 c-4 -3 -7 0 -7 7 0 7 3 10 7 7 3 -4 3 -10 0 -14z m1450 0 c-4 -3 -7 0 -7 7 0 7 3 10 7 7 3 -4 3 -10 0 -14z m-1450 -210 c-4 -3 -7 0 -7 7 0 7 3 10 7 7 3 -4 3 -10 0 -14z m1450 0 c-4 -3 -7 0 -7 7 0 7 3 10 7 7 3 -4 3 -10 0 -14z m-1440 -50 c-4 -3 -7 0 -7 7 0 7 3 10 7 7 3 -4 3 -10 0 -14z m1430 0 c-4 -3 -7 0 -7 7 0 7 3 10 7 7 3 -4 3 -10 0 -14z m-1420 -40 c-4 -3 -7 0 -7 7 0 7 3 10 7 7 3 -4 3 -10 0 -14z m1410 0 c-4 -3 -7 0 -7 7 0 7 3 10 7 7 3 -4 3 -10 0 -14z m-1393 -39 c3 -8 2 -12 -4 -9 -6 3 -10 10 -10 16 0 14 7 11 14 -7z m1377 -7 c-10 -9 -11 -8 -5 6 3 10 9 15 12 12 3 -3 0 -11 -7 -18z m-1333 -92 c-3 -3 -9 2 -12 12 -6 14 -5 15 5 6 7 -7 10 -15 7 -18z m1295 10 c-3 -9 -8 -14 -10 -11 -3 3 -2 9 2 15 9 16 15 13 8 -4z m-1218 -115 c3 -5 4 -10 1 -10 -3 0 -8 5 -11 10 -3 6 -4 10 -1 10 3 0 8 -4 11 -10z m1145 6 c0 -3 -5 -8 -12 -12 -7 -4 -8 -3 -4 4 7 12 16 16 16 8z m-1055 -96 c3 -5 4 -10 1 -10 -3 0 -8 5 -11 10 -3 6 -4 10 -1 10 3 0 8 -4 11 -10z m965 6 c0 -3 -5 -8 -12 -12 -7 -4 -8 -3 -4 4 7 12 16 16 16 8z m-653 -163 c-4 -3 -10 -3 -14 0 -3 4 0 7 7 7 7 0 10 -3 7 -7z m60 -9 c-3 -3 -12 -4 -19 -1 -8 3 -5 6 6 6 11 1 17 -2 13 -5z m230 0 c-3 -3 -12 -4 -19 -1 -8 3 -5 6 6 6 11 1 17 -2 13 -5z"/>
 <path d="M430 1167 c0 -1 27 -79 59 -173 l59 -170 -31 -21 c-18 -12 -70 -49 -117 -83 -47 -33 -100 -70 -117 -81 -18 -12 -33 -25 -33 -30 0 -5 84 -10 188 -11 l187 -3 55 -167 c30 -92 57 -168 60 -168 3 0 30 75 60 167 l55 168 188 3 c111 1 187 6 185 12 -2 5 -69 56 -149 112 l-147 103 59 170 c32 93 56 171 54 173 -2 2 -72 -44 -154 -102 l-151 -107 -149 106 c-133 94 -161 112 -161 102z"/>
 </g>
<g id="layer103" fill="#4f8dc8" stroke="none">
 <path d="M1 715 l0 -714 739 0 739 0 0 714 0 714 -739 0 -739 0 0 -714z m642 698 c-7 -2 -19 -2 -25 0 -7 3 -2 5 12 5 14 0 19 -2 13 -5z m220 0 c-7 -2 -19 -2 -25 0 -7 3 -2 5 12 5 14 0 19 -2 13 -5z m-276 -9 c-3 -3 -12 -4 -19 -1 -8 3 -5 6 6 6 11 1 17 -2 13 -5z m330 0 c-3 -3 -12 -4 -19 -1 -8 3 -5 6 6 6 11 1 17 -2 13 -5z m-380 -11 c-4 -3 -10 -3 -14 0 -3 4 0 7 7 7 7 0 10 -3 7 -7z m420 0 c-4 -3 -10 -3 -14 0 -3 4 0 7 7 7 7 0 10 -3 7 -7z m-450 -10 c-4 -3 -10 -3 -14 0 -3 4 0 7 7 7 7 0 10 -3 7 -7z m480 0 c-4 -3 -10 -3 -14 0 -3 4 0 7 7 7 7 0 10 -3 7 -7z m-517 -13 c-8 -5 -19 -10 -25 -10 -5 0 -3 5 5 10 8 5 20 10 25 10 6 0 3 -5 -5 -10z m560 0 c8 -5 11 -10 5 -10 -5 0 -17 5 -25 10 -8 5 -10 10 -5 10 6 0 17 -5 25 -10z m-84 -48 c97 -31 182 -81 254 -152 140 -137 193 -258 194 -450 1 -94 -3 -129 -22 -190 -63 -199 -231 -363 -437 -426 -85 -26 -305 -26 -390 0 -277 86 -465 332 -465 611 0 186 85 363 232 486 89 74 161 107 313 143 48 12 262 -3 321 -22z m-576 4 c0 -2 -19 -16 -41 -31 -23 -15 -38 -22 -34 -15 4 6 21 20 39 31 32 20 36 21 36 15z m811 -42 c8 -10 -4 -5 -28 11 -24 15 -43 29 -43 32 0 8 57 -27 71 -43z m-901 -17 c0 -1 -30 -32 -67 -67 l-68 -65 65 68 c60 62 70 72 70 64z m990 -62 c35 -36 62 -65 59 -65 -2 0 -34 29 -69 65 -35 36 -62 65 -59 65 2 0 34 -29 69 -65z m-1152 -125 c-17 -27 -33 -50 -35 -50 -6 0 28 64 45 83 25 29 23 19 -10 -33z m1263 -12 c27 -54 18 -47 -20 14 -18 28 -25 45 -16 38 9 -8 25 -31 36 -52z m-1325 -109 c-9 -19 -15 -29 -16 -22 0 15 22 64 27 60 2 -2 -3 -19 -11 -38z m1383 -19 c0 -8 -6 0 -14 19 -8 18 -15 36 -15 40 1 13 29 -45 29 -59z m-1402 -37 c-4 -3 -7 0 -7 7 0 7 3 10 7 7 3 -4 3 -10 0 -14z m1410 0 c-4 -3 -7 0 -7 7 0 7 3 10 7 7 3 -4 3 -10 0 -14z m-1420 -35 c-3 -8 -6 -5 -6 6 -1 11 2 17 5 13 3 -3 4 -12 1 -19z m1430 0 c-3 -8 -6 -5 -6 6 -1 11 2 17 5 13 3 -3 4 -12 1 -19z m-1440 -60 c-3 -7 -5 -2 -5 12 0 14 2 19 5 13 2 -7 2 -19 0 -25z m1450 0 c-3 -7 -5 -2 -5 12 0 14 2 19 5 13 2 -7 2 -19 0 -25z m-1450 -210 c-3 -7 -5 -2 -5 12 0 14 2 19 5 13 2 -7 2 -19 0 -25z m1450 0 c-3 -7 -5 -2 -5 12 0 14 2 19 5 13 2 -7 2 -19 0 -25z m-1440 -50 c-3 -8 -6 -5 -6 6 -1 11 2 17 5 13 3 -3 4 -12 1 -19z m1430 0 c-3 -8 -6 -5 -6 6 -1 11 2 17 5 13 3 -3 4 -12 1 -19z m-1420 -35 c-4 -3 -7 0 -7 7 0 7 3 10 7 7 3 -4 3 -10 0 -14z m1410 0 c-4 -3 -7 0 -7 7 0 7 3 10 7 7 3 -4 3 -10 0 -14z m-1377 -82 c-1 -13 -29 45 -29 59 0 8 6 0 14 -19 8 -18 15 -36 15 -40z m1355 22 c-9 -15 -13 -19 -10 -8 4 11 10 29 13 40 3 11 7 14 9 8 3 -7 -3 -24 -12 -40z m-1306 -105 c18 -28 25 -45 16 -38 -15 13 -60 90 -52 90 2 0 19 -23 36 -52z m1262 14 c-11 -21 -27 -44 -36 -52 -9 -7 -2 10 16 38 38 61 47 68 20 14z m-1161 -137 c35 -36 62 -65 59 -65 -2 0 -34 29 -69 65 -35 36 -62 65 -59 65 2 0 34 -29 69 -65z m1110 62 c0 -1 -30 -32 -67 -67 l-68 -65 65 68 c60 62 70 72 70 64z m-960 -184 c0 -8 -57 27 -71 43 -8 10 4 5 29 -11 23 -15 42 -29 42 -32z m809 41 c-7 -8 -26 -22 -43 -31 -36 -18 -30 -10 16 23 39 28 45 29 27 8z m-709 -84 c8 -5 11 -10 5 -10 -5 0 -17 5 -25 10 -8 5 -10 10 -5 10 6 0 17 -5 25 -10z m560 0 c-8 -5 -19 -10 -25 -10 -5 0 -3 5 5 10 8 5 20 10 25 10 6 0 3 -5 -5 -10z m-523 -17 c-4 -3 -10 -3 -14 0 -3 4 0 7 7 7 7 0 10 -3 7 -7z m480 0 c-4 -3 -10 -3 -14 0 -3 4 0 7 7 7 7 0 10 -3 7 -7z m-450 -10 c-4 -3 -10 -3 -14 0 -3 4 0 7 7 7 7 0 10 -3 7 -7z m420 0 c-4 -3 -10 -3 -14 0 -3 4 0 7 7 7 7 0 10 -3 7 -7z m-370 -9 c-3 -3 -12 -4 -19 -1 -8 3 -5 6 6 6 11 1 17 -2 13 -5z m330 0 c-3 -3 -12 -4 -19 -1 -8 3 -5 6 6 6 11 1 17 -2 13 -5z m-274 -11 c-7 -2 -19 -2 -25 0 -7 3 -2 5 12 5 14 0 19 -2 13 -5z m220 0 c-7 -2 -19 -2 -25 0 -7 3 -2 5 12 5 14 0 19 -2 13 -5z"/>
 <path d="M440 1157 c0 -2 24 -79 54 -171 l54 -166 -42 -28 c-22 -16 -75 -52 -116 -81 -41 -29 -90 -63 -107 -74 -18 -12 -33 -25 -33 -29 0 -4 84 -9 188 -10 l187 -3 55 -162 c30 -90 57 -163 60 -163 3 0 30 73 60 163 l55 162 188 3 c103 1 187 6 187 10 0 4 -28 27 -62 50 -35 23 -85 58 -113 77 -27 20 -66 47 -87 60 l-36 24 54 167 c30 92 53 169 50 171 -2 2 -28 -12 -58 -33 -29 -21 -94 -66 -145 -101 l-92 -63 -53 35 c-29 19 -95 64 -146 100 -87 61 -102 70 -102 62z"/>
 </g>
<g id="layer104" fill="#78a5d4" stroke="none">
 <path d="M1 715 l0 -714 739 0 739 0 0 714 0 714 -739 0 -739 0 0 -714z m647 698 c-10 -2 -26 -2 -35 0 -10 3 -2 5 17 5 19 0 27 -2 18 -5z m220 0 c-10 -2 -26 -2 -35 0 -10 3 -2 5 17 5 19 0 27 -2 18 -5z m-343 -27 c-171 -55 -340 -185 -415 -319 -18 -32 -34 -56 -37 -54 -6 7 37 77 88 142 46 59 127 129 201 174 45 27 186 80 213 80 11 0 -11 -10 -50 -23z m467 -2 c133 -47 248 -127 327 -229 51 -65 94 -135 88 -142 -3 -2 -19 22 -37 54 -75 134 -244 264 -415 319 -38 13 -62 23 -53 24 9 0 50 -12 90 -26z m-78 -54 c208 -53 380 -209 453 -411 23 -65 27 -90 27 -199 1 -106 -3 -135 -23 -195 -91 -271 -338 -445 -631 -445 -288 0 -531 167 -627 431 -24 66 -27 88 -27 204 0 116 3 138 27 204 73 201 244 357 449 411 100 26 250 26 352 0z m-858 -371 c-8 -19 -21 -66 -29 -104 -9 -39 -16 -59 -16 -45 -1 40 45 197 55 187 2 -2 -2 -19 -10 -38z m1399 -71 c9 -36 15 -75 12 -85 -3 -13 -5 -11 -6 7 -1 23 -27 123 -45 175 -5 13 -2 11 8 -5 8 -14 22 -55 31 -92z m-1406 -398 c21 -57 22 -65 7 -40 -17 31 -46 139 -45 171 0 13 7 -5 15 -41 7 -36 18 -76 23 -90z m1406 52 c-9 -37 -23 -78 -31 -92 -10 -16 -13 -18 -8 -5 18 52 44 152 45 175 1 18 3 20 6 7 3 -10 -3 -49 -12 -85z m-1322 -213 c81 -124 231 -233 392 -285 39 -13 63 -23 54 -24 -28 0 -143 41 -199 72 -118 65 -223 168 -288 281 -23 39 -30 67 -9 33 7 -10 29 -45 50 -77z m1255 45 c-62 -109 -168 -214 -278 -276 -51 -30 -183 -78 -208 -78 -9 1 15 11 53 24 171 55 340 185 415 319 18 32 34 56 37 54 2 -3 -6 -22 -19 -43z m-740 -361 c-10 -2 -26 -2 -35 0 -10 3 -2 5 17 5 19 0 27 -2 18 -5z m220 0 c-10 -2 -26 -2 -35 0 -10 3 -2 5 17 5 19 0 27 -2 18 -5z"/>
 <path d="M446 1138 c15 -49 96 -294 100 -304 3 -7 -62 -58 -143 -115 l-148 -104 184 -5 185 -5 55 -168 c31 -92 58 -167 61 -167 3 0 30 75 61 167 l55 168 185 5 c181 5 184 5 159 23 -14 10 -80 57 -148 104 -94 65 -122 90 -117 102 22 52 105 314 102 318 -3 2 -58 -33 -123 -79 -188 -132 -167 -122 -212 -94 -22 13 -87 59 -146 100 -58 42 -109 76 -112 76 -3 0 -2 -10 2 -22z"/>
 </g>
<g id="layer105" fill="#90b5db" stroke="none">
 <path d="M1 1108 c1 -219 4 -306 10 -271 49 295 313 543 624 586 17 2 -120 5 -302 6 l-333 1 1 -322z"/>
 <path d="M845 1423 c311 -43 575 -291 624 -586 6 -35 9 52 10 271 l1 322 -332 -1 c-183 -1 -319 -4 -303 -6z"/>
 <path d="M628 1410 c-294 -53 -525 -258 -594 -525 -24 -93 -24 -247 0 -340 61 -238 261 -436 511 -506 112 -32 278 -32 390 0 250 70 450 268 511 506 24 93 24 247 0 340 -61 236 -262 437 -506 504 -84 24 -241 34 -312 21z m277 -76 c93 -22 212 -86 287 -154 83 -75 140 -161 175 -265 25 -70 28 -95 28 -200 0 -105 -3 -130 -28 -200 -54 -158 -171 -291 -322 -365 -111 -55 -180 -71 -305 -71 -189 0 -337 59 -468 189 -83 82 -125 146 -163 252 -34 95 -34 295 0 390 38 105 80 170 161 250 171 168 397 230 635 174z"/>
 <path d="M445 1140 c16 -51 96 -295 101 -307 3 -6 -60 -57 -143 -115 l-148 -103 184 -5 184 -5 57 -170 c67 -197 52 -200 130 30 l47 140 183 5 183 5 -147 104 c-114 80 -146 107 -141 120 21 49 105 314 102 317 -2 3 -68 -41 -146 -96 -79 -55 -147 -100 -151 -100 -5 0 -62 38 -127 83 -65 46 -131 92 -147 102 l-29 19 8 -24z"/>
 <path d="M1 323 l-1 -323 333 1 c182 1 319 4 302 6 -311 43 -575 291 -624 586 -6 35 -9 -52 -10 -270z"/>
 <path d="M1470 609 c0 -42 -45 -173 -82 -238 -110 -193 -319 -333 -543 -364 -16 -2 120 -5 303 -6 l332 -1 0 320 c0 176 -2 320 -5 320 -3 0 -5 -14 -5 -31z"/>
 </g>
<g id="layer106" fill="#a1c0e0" stroke="none">
 <path d="M1 1113 c1 -289 2 -312 14 -258 62 284 287 503 574 560 60 12 38 13 -261 14 l-328 1 1 -317z"/>
 <path d="M891 1415 c287 -57 512 -276 574 -560 12 -54 13 -31 14 258 l1 317 -327 -1 c-300 -1 -322 -2 -262 -14z"/>
 <path d="M660 1413 c-139 -18 -284 -78 -385 -160 -400 -324 -326 -937 140 -1163 109 -53 197 -73 325 -73 128 0 216 20 325 73 466 226 540 839 140 1163 -74 59 -198 121 -285 141 -72 17 -205 27 -260 19z m249 -79 c105 -24 215 -87 302 -173 85 -85 119 -138 158 -244 23 -64 26 -86 26 -202 0 -116 -3 -138 -26 -202 -39 -106 -73 -159 -158 -244 -62 -62 -93 -85 -171 -122 -114 -54 -185 -71 -305 -70 -184 1 -337 64 -466 192 -83 83 -117 135 -157 238 -24 62 -26 81 -26 208 0 127 2 146 26 208 40 103 74 155 157 238 170 168 394 229 640 173z"/>
 <path d="M441 1153 c0 -4 24 -80 53 -168 29 -88 52 -163 50 -166 -2 -3 -67 -50 -145 -105 l-142 -99 184 -5 184 -5 55 -162 c30 -90 57 -163 60 -163 3 0 30 73 60 162 l55 163 184 5 184 5 -142 99 c-78 55 -144 102 -146 105 -1 3 22 80 52 170 30 90 52 165 50 167 -2 2 -67 -41 -146 -96 -78 -55 -146 -100 -151 -100 -5 0 -69 42 -142 93 -154 108 -158 111 -157 100z"/>
 <path d="M1 318 l-1 -318 328 1 c299 1 321 2 261 14 -287 57 -512 276 -574 560 -12 54 -13 31 -14 -257z"/>
 <path d="M1470 606 c0 -43 -48 -179 -87 -246 -46 -79 -169 -203 -245 -249 -78 -45 -167 -80 -247 -96 -60 -12 -38 -13 262 -14 l327 -1 0 315 c0 173 -2 315 -5 315 -3 0 -5 -11 -5 -24z"/>
 </g>
<g id="layer107" fill="#b3cce6" stroke="none">
 <path d="M1 1118 l0 -313 18 70 c67 270 285 479 565 540 56 12 32 13 -261 14 l-323 1 1 -312z"/>
 <path d="M896 1415 c280 -61 498 -270 565 -540 l18 -70 0 313 1 312 -322 -1 c-294 -1 -318 -2 -262 -14z"/>
 <path d="M642 1409 c-357 -46 -626 -344 -626 -694 0 -298 194 -564 483 -660 353 -117 721 29 894 355 92 175 92 435 0 610 -116 219 -316 358 -563 390 -85 11 -100 11 -188 -1z m273 -75 c114 -29 203 -81 296 -174 80 -80 117 -135 161 -245 37 -94 37 -306 0 -400 -44 -110 -81 -165 -161 -245 -137 -137 -275 -193 -471 -193 -196 0 -334 56 -471 193 -80 80 -117 135 -161 245 -37 94 -37 306 0 400 43 106 82 166 156 241 113 112 225 170 375 194 71 11 198 4 276 -16z"/>
 <path d="M442 1149 c3 -8 18 -54 33 -104 15 -49 36 -110 47 -134 38 -85 39 -83 -120 -195 l-144 -101 184 -3 184 -2 54 -165 c30 -91 57 -165 60 -165 3 0 30 74 60 165 l54 165 184 2 184 3 -141 98 c-77 54 -143 102 -146 108 -7 10 21 105 35 124 9 12 71 207 67 211 -2 2 -67 -42 -145 -96 -78 -55 -146 -100 -152 -100 -6 0 -70 42 -143 93 -164 115 -162 114 -155 96z"/>
 <path d="M1 313 l-1 -313 323 1 c293 1 317 2 261 14 -280 61 -498 270 -565 540 l-18 70 0 -312z"/>
 <path d="M1461 558 c-53 -259 -285 -482 -565 -543 -56 -12 -32 -13 262 -14 l322 -1 0 310 c0 171 -1 310 -3 310 -2 0 -9 -28 -16 -62z"/>
 </g>
<g id="layer108" fill="#c9dbed" stroke="none">
 <path d="M1 1118 c1 -293 1 -309 15 -248 7 36 35 108 60 160 39 79 62 110 134 181 74 75 100 94 191 137 57 28 136 58 174 66 67 14 57 14 -252 15 l-323 1 1 -312z"/>
 <path d="M905 1414 c39 -8 117 -38 174 -66 91 -43 117 -62 191 -137 72 -71 95 -102 134 -181 25 -52 53 -124 60 -160 14 -61 14 -45 15 248 l1 312 -322 -1 c-310 -1 -320 -1 -253 -15z"/>
 <path d="M653 1409 c-298 -34 -543 -245 -618 -534 -20 -78 -20 -242 0 -320 84 -322 366 -536 705 -536 339 0 621 214 705 536 20 78 20 242 0 320 -91 349 -426 575 -792 534z m262 -74 c115 -31 203 -83 296 -175 135 -134 191 -265 191 -445 0 -180 -56 -311 -191 -445 -138 -137 -277 -194 -471 -194 -194 0 -333 57 -471 194 -135 134 -191 265 -191 445 0 165 56 306 170 427 103 109 218 174 362 204 79 16 221 11 305 -11z"/>
 <path d="M496 998 c30 -89 54 -167 54 -173 -1 -5 -66 -55 -146 -110 l-145 -100 183 -3 184 -2 54 -165 c30 -91 57 -165 60 -165 3 0 30 74 60 165 l54 165 184 2 183 3 -145 100 c-80 55 -145 105 -146 110 0 6 24 84 54 173 54 161 54 162 28 144 -15 -10 -79 -56 -143 -100 -65 -45 -122 -82 -129 -82 -7 0 -64 37 -129 82 -64 44 -128 90 -143 100 -26 18 -26 17 28 -144z"/>
 <path d="M1 313 l-1 -313 323 1 c309 1 319 1 252 15 -38 8 -117 38 -174 66 -91 43 -117 62 -191 137 -72 71 -95 102 -134 181 -25 52 -53 124 -60 160 -14 61 -14 45 -15 -247z"/>
 <path d="M1463 558 c-7 -35 -33 -106 -59 -158 -39 -78 -62 -110 -134 -181 -74 -75 -100 -94 -191 -137 -57 -28 -135 -58 -174 -66 -67 -14 -57 -14 253 -15 l322 -1 0 310 c0 171 -1 310 -3 310 -1 0 -8 -28 -14 -62z"/>
 </g>
<g id="layer109" fill="#dae6f3" stroke="none">
 <path d="M1 1123 l0 -308 19 73 c68 257 291 470 555 527 54 12 29 13 -257 14 l-318 1 1 -307z"/>
 <path d="M905 1415 c264 -57 487 -270 555 -527 l19 -73 0 308 1 307 -317 -1 c-287 -1 -312 -2 -258 -14z"/>
 <path d="M554 1390 c-318 -83 -534 -357 -534 -675 0 -320 218 -594 538 -676 102 -26 262 -26 364 0 320 82 538 356 538 676 0 320 -218 594 -538 676 -100 25 -269 25 -368 -1z m391 -64 c241 -76 412 -273 452 -518 14 -86 14 -104 0 -187 -41 -246 -209 -438 -452 -518 -69 -23 -97 -26 -205 -26 -108 0 -136 3 -205 26 -243 80 -411 272 -452 516 -14 85 -14 103 0 189 45 276 260 491 541 542 85 15 231 4 321 -24z"/>
 <path d="M496 998 c30 -89 54 -167 54 -173 0 -5 -66 -55 -145 -110 l-144 -100 182 -3 182 -2 54 -160 c29 -88 57 -160 60 -160 4 0 31 72 61 160 l55 160 182 2 182 3 -144 100 c-79 55 -145 105 -145 110 0 6 24 84 54 173 54 161 54 162 28 144 -15 -11 -82 -58 -149 -105 l-123 -87 -122 87 c-68 47 -135 94 -150 105 -26 18 -26 17 28 -144z"/>
 <path d="M1 308 l-1 -308 318 1 c286 1 311 2 257 14 -264 57 -487 270 -555 527 l-19 73 0 -307z"/>
 <path d="M1462 550 c-7 -32 -33 -99 -57 -148 -97 -193 -288 -341 -500 -387 -54 -12 -29 -13 258 -14 l317 -1 0 305 c0 168 -1 305 -3 305 -2 0 -9 -27 -15 -60z"/>
 </g>
<g id="layer110" fill="#ffffff" stroke="none">
 <path d="M1 1128 l0 -303 19 70 c34 126 84 210 190 315 77 78 111 104 180 138 47 23 119 51 160 62 l75 19 -312 0 -313 1 1 -302z"/>
 <path d="M930 1410 c41 -11 113 -39 160 -62 69 -34 103 -60 180 -138 106 -105 156 -189 190 -315 l19 -70 0 303 1 302 -312 -1 -313 0 75 -19z"/>
 <path d="M562 1391 c-40 -10 -112 -38 -160 -61 -71 -35 -104 -60 -177 -134 -74 -74 -99 -107 -133 -176 -52 -107 -72 -190 -72 -305 0 -115 20 -198 72 -305 34 -69 60 -103 133 -176 78 -78 104 -98 185 -137 115 -55 209 -77 330 -77 121 0 215 22 330 77 81 39 107 59 185 137 73 73 99 107 133 176 52 107 72 190 72 305 0 115 -20 198 -72 305 -34 69 -60 103 -133 176 -78 78 -104 98 -185 137 -52 25 -127 52 -167 61 -95 21 -248 19 -341 -3z m320 -46 c95 -20 238 -91 310 -155 78 -69 151 -182 184 -283 23 -69 27 -100 27 -192 0 -139 -30 -238 -104 -349 -66 -99 -144 -167 -254 -221 -201 -100 -409 -100 -610 0 -110 54 -188 122 -254 221 -74 111 -104 210 -104 349 0 139 30 238 104 349 66 99 144 166 254 221 144 72 292 92 447 60z"/>
 <path d="M496 996 c30 -88 53 -166 52 -173 -2 -7 -68 -57 -147 -113 l-145 -100 187 0 186 0 53 -160 c29 -88 55 -160 58 -160 3 0 29 72 58 160 l53 160 186 0 187 0 -145 100 c-79 56 -145 107 -147 115 -2 7 20 80 48 161 28 81 49 151 48 155 -2 4 -67 -37 -146 -92 l-142 -100 -149 104 -149 105 54 -162z"/>
 <path d="M1 303 l-1 -303 313 1 312 0 -75 19 c-41 11 -113 39 -160 62 -69 34 -103 60 -180 138 -106 105 -156 189 -190 315 l-19 70 0 -302z"/>
 <path d="M1462 543 c-8 -32 -32 -96 -55 -143 -34 -70 -58 -101 -136 -180 -78 -78 -112 -104 -181 -138 -47 -23 -119 -51 -160 -62 l-75 -19 313 0 312 -1 0 300 c0 165 -1 300 -3 300 -1 0 -8 -26 -15 -57z"/>
 </g>

</svg>